<svg xmlns="http://www.w3.org/2000/svg" version="1.1" xmlns:xlink="http://www.w3.org/1999/xlink" xmlns:svgjs="http://svgjs.dev/svgjs" width="1393" height="895" preserveAspectRatio="none" viewBox="0 0 1393 895"><g mask="url(&quot;#SvgjsMask4076&quot;)" fill="none"><rect width="1393" height="895" x="0" y="0" fill="url(&quot;#SvgjsLinearGradient4077&quot;)"></rect><path d="M0 0L269.95 0L0 435.91z" fill="rgba(255, 255, 255, .1)"></path><path d="M0 435.91L269.95 0L764.9300000000001 0L0 475.96000000000004z" fill="rgba(255, 255, 255, .075)"></path><path d="M0 475.96000000000004L764.9300000000001 0L845.3900000000001 0L0 677.0400000000001z" fill="rgba(255, 255, 255, .05)"></path><path d="M0 677.0400000000001L845.3900000000001 0L1218.43 0L0 753.5500000000001z" fill="rgba(255, 255, 255, .025)"></path><path d="M1393 895L1062.37 895L1393 793.1z" fill="rgba(0, 0, 0, .1)"></path><path d="M1393 793.1L1062.37 895L922.3699999999999 895L1393 378.93z" fill="rgba(0, 0, 0, .075)"></path><path d="M1393 378.92999999999995L922.37 895L407.40999999999997 895L1393 312.8399999999999z" fill="rgba(0, 0, 0, .05)"></path><path d="M1393 312.8399999999999L407.40999999999997 895L372.33 895L1393 303.2299999999999z" fill="rgba(0, 0, 0, .025)"></path></g><defs><mask id="SvgjsMask4076"><rect width="1393" height="895" fill="#ffffff"></rect></mask><linearGradient x1="50%" y1="100%" x2="50%" y2="0%" gradientUnits="userSpaceOnUse" id="SvgjsLinearGradient4077"><stop stop-color="rgba(255, 255, 255, 0.86)" offset="0"></stop><stop stop-color="rgba(158, 0, 96, 1)" offset="1"></stop></linearGradient></defs></svg>